<?xml version="1.0" standalone="no"?>
<!DOCTYPE svg PUBLIC "-//W3C//DTD SVG 20010904//EN"
 "http://www.w3.org/TR/2001/REC-SVG-20010904/DTD/svg10.dtd">
<svg version="1.0" xmlns="http://www.w3.org/2000/svg"
 width="1280.000000pt" height="762.000000pt" viewBox="0 0 1280.000000 762.000000"
 preserveAspectRatio="xMidYMid meet">
<metadata>
Created by potrace 1.15, written by Peter Selinger 2001-2017
</metadata>
<g transform="translate(0.000000,762.000000) scale(0.100000,-0.100000)"
fill="#000000" stroke="none">
<path d="M6895 7608 c-646 -65 -1311 -521 -1772 -1213 -576 -864 -1090 -2283
-1384 -3817 l-41 -218 -73 0 c-39 0 -106 -3 -147 -6 l-75 -7 -59 73 -59 73
-365 -7 c-201 -4 -367 -9 -369 -11 -2 -2 -9 -262 -16 -577 -8 -315 -17 -706
-20 -868 l-7 -295 -45 -27 c-53 -34 -56 -34 -68 -6 -17 36 -57 59 -106 60
l-45 0 -13 567 c-13 591 -21 723 -50 800 -15 40 -21 46 -45 46 l-27 -1 7 152
7 152 -46 7 -45 7 -12 87 c-14 98 -24 113 -113 172 -85 56 -152 73 -277 73
-134 0 -233 -28 -334 -94 -99 -65 -105 -74 -118 -174 l-12 -86 -53 0 c-36 0
-53 -4 -53 -12 0 -7 -11 -120 -25 -252 -14 -131 -25 -240 -25 -241 0 -1 -118
0 -262 2 -303 6 -560 -8 -639 -34 l-54 -18 -7 -140 c-14 -250 -47 -1009 -45
-1011 1 -1 31 1 67 6 54 7 83 4 172 -17 95 -22 116 -31 182 -78 74 -53 75 -54
257 -92 l183 -38 119 -145 c66 -80 121 -146 121 -147 1 -1 141 9 311 22 171
14 334 25 363 25 30 0 185 -26 345 -57 l292 -57 390 22 c215 13 482 22 595 22
113 0 502 5 865 11 l660 12 735 -108 c404 -59 771 -109 815 -112 44 -2 241 7
438 21 l358 25 629 -40 629 -39 698 65 c384 36 750 69 813 75 63 5 421 15 795
21 489 8 682 14 687 23 4 6 34 47 67 92 l59 81 124 6 c67 4 187 10 265 13
l141 7 32 133 c18 74 34 134 35 134 1 0 101 34 221 76 137 48 239 78 273 81
30 2 56 5 57 6 3 3 -29 818 -44 1101 l-7 149 -70 -2 c-38 -1 -79 -3 -90 -4
-18 -2 -23 42 -115 1238 -89 1164 -95 1232 -102 1115 -4 -69 -21 -622 -38
-1230 -17 -608 -33 -1129 -36 -1158 l-5 -52 -76 67 -75 67 -95 -12 c-53 -7
-97 -11 -98 -10 -1 2 -18 131 -39 288 -20 156 -39 286 -40 288 -2 1 -34 5 -71
9 -67 6 -68 6 -83 45 l-15 38 -135 0 -136 0 -56 -45 -57 -44 -159 -20 c-87
-10 -160 -18 -162 -17 -1 2 -11 322 -22 712 -13 477 -25 745 -35 819 -23 162
-21 156 -51 145 -34 -13 -206 -13 -391 2 l-153 11 -64 77 c-96 113 -82 109
-175 51 l-81 -51 -6 28 c-40 187 -131 438 -262 717 -72 153 -308 616 -400 785
-301 553 -463 790 -721 1052 -246 252 -526 439 -806 537 -262 93 -618 131
-930 99z m460 -223 c455 -82 770 -251 1079 -576 261 -274 477 -613 671 -1054
65 -147 305 -749 367 -918 88 -243 148 -467 148 -552 l0 -23 -80 24 c-44 14
-84 22 -89 20 -5 -3 -45 -73 -90 -155 l-81 -149 7 -709 6 -710 -284 -7 -284
-7 -160 -83 -160 -84 -3 -86 -3 -86 -207 0 -207 0 -128 -148 -128 -147 7 -230
c3 -126 11 -444 18 -706 l11 -477 -25 18 c-64 46 -60 15 -75 521 -8 255 -15
649 -15 874 0 226 -3 555 -7 732 l-6 321 -99 144 -99 143 -67 6 c-37 4 -112 7
-167 7 l-100 1 -157 -177 -158 -177 1 -70 c0 -38 8 -245 18 -460 l17 -390 -90
-154 -89 -153 2 -257 c0 -141 4 -329 8 -419 l6 -163 -74 3 -74 3 -32 330 c-17
182 -32 331 -32 333 -1 1 -25 2 -53 2 -29 0 -77 3 -106 6 -50 6 -54 10 -96 66
l-44 59 -7 182 c-11 285 -18 292 -38 44 -15 -186 -21 -225 -43 -276 l-25 -58
-181 -38 -181 -39 7 -205 c3 -114 9 -261 13 -328 l6 -123 -86 0 -86 0 -10 53
c-6 28 -29 211 -51 405 l-40 354 -118 143 c-64 79 -121 144 -127 144 -5 0 -71
-78 -145 -174 -74 -95 -136 -173 -137 -171 -1 1 -9 184 -18 406 -8 223 -18
438 -21 478 l-6 72 -294 0 c-214 0 -294 3 -294 11 0 22 71 413 116 644 221
1119 549 2157 913 2882 251 503 464 758 841 1010 274 183 491 281 695 313 89
13 414 4 520 -15z m5052 -3737 c-3 -8 -6 -5 -6 6 -1 11 2 17 5 13 3 -3 4 -12
1 -19z"/>
</g>
</svg>
